<?xml version="1.0" standalone="no"?>
<!DOCTYPE svg PUBLIC "-//W3C//DTD SVG 20010904//EN"
 "http://www.w3.org/TR/2001/REC-SVG-20010904/DTD/svg10.dtd">
<svg version="1.0" xmlns="http://www.w3.org/2000/svg"
 width="1478.000000pt" height="1478.000000pt" viewBox="0 0 1478.000000 1478.000000"
 preserveAspectRatio="xMidYMid meet">
<metadata>
Created by potrace 1.14, written by Peter Selinger 2001-2017
</metadata>
<g transform="translate(0.000000,1478.000000) scale(0.100000,-0.100000)"
fill="#000000" stroke="none">
<path d="M9575 12298 c-2 -13 -352 -2028 -775 -4478 -424 -2450 -774 -4465
-777 -4478 l-5 -22 828 2 828 3 388 2190 c212 1205 392 2220 398 2258 l12 68
106 108 c242 244 495 386 782 437 118 21 352 22 465 1 219 -40 388 -157 476
-329 33 -65 67 -202 78 -319 21 -211 16 -246 -344 -2388 -184 -1099 -335
-2005 -335 -2014 0 -16 59 -17 823 -17 l824 0 21 123 c11 67 162 973 336 2012
308 1843 316 1895 327 2098 20 397 -21 771 -120 1072 -104 320 -279 593 -494
773 -232 195 -490 305 -842 358 -149 23 -442 23 -595 1 -474 -69 -882 -283
-1272 -668 -65 -64 -118 -111 -118 -103 0 15 638 3289 646 3317 5 16 -39 17
-825 17 l-831 0 -5 -22z"/>
<path d="M1344 7588 l-741 -4263 855 -3 c471 -1 857 0 859 2 2 2 122 676 266
1497 l263 1494 974 6 c988 6 1089 10 1360 49 919 131 1671 533 2182 1166 157
194 336 519 418 759 135 396 196 887 160 1295 -52 584 -266 1055 -660 1451
-203 204 -375 331 -623 459 -269 140 -531 226 -863 285 -321 57 -311 57 -2079
62 l-1630 4 -741 -4263z m3963 2821 c366 -44 658 -237 805 -534 124 -248 150
-562 78 -917 -118 -576 -533 -1000 -1128 -1153 -240 -61 -220 -60 -1131 -58
-458 1 -835 4 -838 6 -4 4 452 2634 462 2664 5 15 1622 8 1752 -8z"/>
</g>
</svg>
